<svg width="1280" height="1280" viewBox="0 0 1280 1280" fill="none" xmlns="http://www.w3.org/2000/svg">
<path fill-rule="evenodd" clip-rule="evenodd" d="M0 0H1280V1280H0V0ZM915 457C915 608.878 791.878 732 640 732C488.122 732 365 608.878 365 457C365 305.122 488.122 182 640 182C791.878 182 915 305.122 915 457ZM390.527 692.182C387.762 689.532 386.163 688 386 688C378 687.999 350.5 696 350.5 696C350.5 696 328.213 704.868 315 712C292.839 723.962 282.859 735.84 267.046 754.66C266.537 755.266 266.022 755.88 265.5 756.5C239.873 786.977 231.524 810.805 219.199 845.982C218.009 849.377 216.783 852.878 215.5 856.5C201.665 895.571 192 960 192 960C505 1337.5 916 1194.5 1088 956.5C1088 956.5 1079.3 894.209 1066 856.5L1065.65 855.516C1052.59 818.474 1044.75 796.254 1020.5 765C1002.13 741.322 988.374 725.863 965 712C939.328 696.775 911.5 688.5 893.5 688C893.2 687.991 890.817 690.248 886.825 694.027C870.824 709.174 828.991 748.776 792 765C735 790 701.008 800 639 800C579.5 800 546 789 488.5 765C449.525 748.732 404.704 705.771 390.527 692.182Z" fill="#2F2F2F"/>
</svg>
